<?xml version="1.0" encoding="utf-8"?>
<!-- Svg Vector Icons : http://www.onlinewebfonts.com/icon -->
<!DOCTYPE svg PUBLIC "-//W3C//DTD SVG 1.1//EN" "http://www.w3.org/Graphics/SVG/1.1/DTD/svg11.dtd">
<svg version="1.1" xmlns="http://www.w3.org/2000/svg" xmlns:xlink="http://www.w3.org/1999/xlink" x="0px" y="0px" viewBox="0 0 256 256" enable-background="new 0 0 256 256" xml:space="preserve">
<metadata> Svg Vector Icons : http://www.onlinewebfonts.com/icon </metadata>
<g><g><path fill="#000000" d="M165.2,140.5c-10.2,5.9-22,9.3-34.6,9.3c-13.4,0-25.8-3.8-36.4-10.4C45.5,154.1,10,199.8,10,253.9c0,0.6,0.1,1.3,0.1,1.9h235.8c0-0.6,0.1-1.3,0.1-1.9C246,201,212.1,156.3,165.2,140.5z"/><path fill="#000000" d="M130.6,0.3C92.1,0.3,61,31.4,61,69.8c0,25.1,13.3,46.9,33.2,59.2c10.6,6.5,23,10.4,36.4,10.4c12.6,0,24.4-3.4,34.6-9.3c20.9-12,35-34.5,35-60.3C200.1,31.4,169,0.3,130.6,0.3z"/></g></g>
</svg>